<?xml version="1.0" standalone="no"?><!-- Generator: Gravit.io --><svg xmlns="http://www.w3.org/2000/svg" xmlns:xlink="http://www.w3.org/1999/xlink" style="isolation:isolate" viewBox="0 0 100 100" width="100" height="100"><g id="Point"><path d=" M 0 50 C 0 22.404 22.404 0 50 0 C 77.596 0 100 22.404 100 50 C 100 77.596 77.596 100 50 100 C 22.404 100 0 77.596 0 50 Z " fill="rgb(62,118,101)"/><path d="M 41.89 75.974 L 41.89 75.974 C 47.9 74.055 56.414 74.973 60.89 78.022 L 60.89 78.022 C 65.366 81.072 64.12 85.106 58.11 87.026 L 58.11 87.026 C 52.1 88.945 43.586 88.028 39.11 84.978 L 39.11 84.978 C 34.634 81.928 35.88 77.894 41.89 75.974 Z" style="stroke:none;fill:#EBEBEB;stroke-miterlimit:10;"/><path d="M 41.89 75.974 L 41.89 75.974 C 47.9 74.055 56.414 74.973 60.89 78.022 L 60.89 78.022 C 65.366 81.072 64.12 85.106 58.11 87.026 L 58.11 87.026 C 52.1 88.945 43.586 88.028 39.11 84.978 L 39.11 84.978 C 34.634 81.928 35.88 77.894 41.89 75.974 Z" style="fill:none;stroke:#3E7665;stroke-width:1;stroke-linecap:square;stroke-miterlimit:3;"/><path d=" M 50.002 18.5 Q 30.987 18.435 31.431 35.072 C 31.643 43.044 34.263 52.266 39.29 62.736 Q 43.514 71.531 50.002 81.5 Q 68.134 55.542 68.573 35.072 Q 68.924 18.711 50.002 18.5 Z " fill="rgb(255,255,255)" vector-effect="non-scaling-stroke" stroke-width="1" stroke="rgb(62,118,101)" stroke-linejoin="miter" stroke-linecap="square" stroke-miterlimit="3"/><path d=" M 44 36.5 C 44 33.189 46.689 30.5 50 30.5 C 53.311 30.5 56 33.189 56 36.5 C 56 39.811 53.311 42.5 50 42.5 C 46.689 42.5 44 39.811 44 36.5 Z " fill="rgb(62,118,101)"/></g></svg>